ffmpeg started on 2025-06-27 at 10:17:02
Report written to "D:\Convert\FFMetrics\reports\psnr_report-6.txt"
Log level: 32
Command line:
ffmpeg -hide_banner -nostdin -i "G:\\\xc0\xed\xe8\xec\xe5\\[\xd2\xee\xef-4]\\\xd2\xee\xea\xe8\xe9\xf1\xea\xe8\xe9 \xc3\xf3\xeb\xfc\\\xd2\xc2-4\\Tokyo_Ghoul_Re_[11]_[AniLibria_TV]_[HDTVRip_720p]_HEVC.mkv" -i "G:\\\xc0\xed\xe8\xec\xe5\\[\xd2\xee\xef-4]\\\xd2\xee\xea\xe8\xe9\xf1\xea\xe8\xe9 \xc3\xf3\xeb\xfc\\\xd2\xc2-4\\Tokyo_Ghoul_Re_[11]_[AniLibria_TV]_[HDTVRip_720p].mkv" -lavfi "[0:v]settb=AVTB,setpts=PTS-STARTPTS,format=pix_fmts=yuv420p10,fps=24000/1001,scale=1280:720:flags=bicubic[main];[1:v]settb=AVTB,setpts=PTS-STARTPTS,format=pix_fmts=yuv420p,fps=24000/1001,scale=1280:720:flags=bicubic[ref];[main][ref]psnr=eof_action=endall:stats_file='D\\:/Convert/FFMetrics/logs/psnr_logfile-6.txt'" -f null -
Input #0, matroska,webm, from 'G:\Аниме\[Топ-4]\Токийский Гуль\ТВ-4\Tokyo_Ghoul_Re_[11]_[AniLibria_TV]_[HDTVRip_720p]_HEVC.mkv':
  Metadata:
    ENCODER         : Lavf61.7.100
  Duration: 00:24:30.10, start: -0.021000, bitrate: 1069 kb/s
  Stream #0:0(jpn): Video: hevc (Main 10), yuv420p10le(tv, bt709, progressive), 1280x720 [SAR 1:1 DAR 16:9], 23.98 fps, 23.98 tbr, 1k tbn (default) (forced)
      Metadata:
        title           : Original [Ohys-Raws]
        ENCODER         : Lavc61.19.100 libx265
        BPS             : 729739
        DURATION        : 00:24:29.968708333
        NUMBER_OF_FRAMES: 35244
        NUMBER_OF_BYTES : 134086780
        _STATISTICS_WRITING_APP: mkvpropedit v66.0.0 ('Josie') 64-bit
        _STATISTICS_WRITING_DATE_UTC: 2025-06-26 14:46:29
        _STATISTICS_TAGS: BPS DURATION NUMBER_OF_FRAMES NUMBER_OF_BYTES
  Stream #0:1(rus): Audio: aac (LC), 48000 Hz, stereo, fltp (default) (forced)
      Metadata:
        title           : Lupin, Silv, December & MyAska
        ENCODER         : Lavc61.19.100 aac
        BPS             : 193855
        DURATION        : 00:24:30.080000000
        NUMBER_OF_FRAMES: 68911
        NUMBER_OF_BYTES : 35622940
        _STATISTICS_WRITING_APP: mkvpropedit v66.0.0 ('Josie') 64-bit
        _STATISTICS_WRITING_DATE_UTC: 2025-06-26 14:46:29
        _STATISTICS_TAGS: BPS DURATION NUMBER_OF_FRAMES NUMBER_OF_BYTES
  Stream #0:2(rus): Subtitle: ass (ssa) (default) (forced)
      Metadata:
        title           : Надписи
        BPS             : 70798
        DURATION        : 00:21:31.920000000
        NUMBER_OF_FRAMES: 38630
        NUMBER_OF_BYTES : 11433244
        _STATISTICS_WRITING_APP: mkvpropedit v66.0.0 ('Josie') 64-bit
        _STATISTICS_WRITING_DATE_UTC: 2025-06-26 14:46:29
        _STATISTICS_TAGS: BPS DURATION NUMBER_OF_FRAMES NUMBER_OF_BYTES
  Stream #0:3(rus): Subtitle: ass (ssa)
      Metadata:
        title           : Полные
        BPS             : 63055
        DURATION        : 00:24:12.820000000
        NUMBER_OF_FRAMES: 38912
        NUMBER_OF_BYTES : 11451052
        _STATISTICS_WRITING_APP: mkvpropedit v66.0.0 ('Josie') 64-bit
        _STATISTICS_WRITING_DATE_UTC: 2025-06-26 14:46:29
        _STATISTICS_TAGS: BPS DURATION NUMBER_OF_FRAMES NUMBER_OF_BYTES
Input #1, matroska,webm, from 'G:\Аниме\[Топ-4]\Токийский Гуль\ТВ-4\Tokyo_Ghoul_Re_[11]_[AniLibria_TV]_[HDTVRip_720p].mkv':
  Metadata:
    encoder         : libebml v1.4.2 + libmatroska v1.6.4
    creation_time   : 2024-12-27T09:47:06.000000Z
  Duration: 00:24:30.08, start: 0.000000, bitrate: 2728 kb/s
  Stream #1:0(jpn): Video: h264 (Main), yuv420p(tv, bt709, progressive), 1280x720, SAR 1:1 DAR 16:9, 23.98 fps, 23.98 tbr, 1k tbn (default) (forced)
      Metadata:
        title           : Original [Ohys-Raws]
        BPS             : 2383336
        DURATION        : 00:24:29.969000000
        NUMBER_OF_FRAMES: 35244
        NUMBER_OF_BYTES : 437928905
        _STATISTICS_WRITING_APP: mkvmerge v66.0.0 ('Josie') 64-bit
        _STATISTICS_WRITING_DATE_UTC: 2024-12-27 09:47:06
        _STATISTICS_TAGS: BPS DURATION NUMBER_OF_FRAMES NUMBER_OF_BYTES
  Stream #1:1(rus): Audio: aac (LC), 48000 Hz, stereo, fltp (default) (forced)
      Metadata:
        title           : Lupin, Silv, December & MyAska
        BPS             : 189375
        DURATION        : 00:24:30.080000000
        NUMBER_OF_FRAMES: 68910
        NUMBER_OF_BYTES : 34799551
        _STATISTICS_WRITING_APP: mkvmerge v66.0.0 ('Josie') 64-bit
        _STATISTICS_WRITING_DATE_UTC: 2024-12-27 09:47:06
        _STATISTICS_TAGS: BPS DURATION NUMBER_OF_FRAMES NUMBER_OF_BYTES
  Stream #1:2(rus): Subtitle: ass (ssa) (default) (forced)
      Metadata:
        title           : Надписи
        BPS             : 70798
        DURATION        : 00:21:31.920000000
        NUMBER_OF_FRAMES: 38630
        NUMBER_OF_BYTES : 11433244
        _STATISTICS_WRITING_APP: mkvmerge v66.0.0 ('Josie') 64-bit
        _STATISTICS_WRITING_DATE_UTC: 2024-12-27 09:47:06
        _STATISTICS_TAGS: BPS DURATION NUMBER_OF_FRAMES NUMBER_OF_BYTES
  Stream #1:3(rus): Subtitle: ass (ssa)
      Metadata:
        title           : Полные
        BPS             : 63055
        DURATION        : 00:24:12.820000000
        NUMBER_OF_FRAMES: 38912
        NUMBER_OF_BYTES : 11451052
        _STATISTICS_WRITING_APP: mkvmerge v66.0.0 ('Josie') 64-bit
        _STATISTICS_WRITING_DATE_UTC: 2024-12-27 09:47:06
        _STATISTICS_TAGS: BPS DURATION NUMBER_OF_FRAMES NUMBER_OF_BYTES
  Stream #1:4: Attachment: ttf
      Metadata:
        filename        : simsun_0.ttc
        mimetype        : application/x-truetype-font
  Stream #1:5: Attachment: ttf
      Metadata:
        filename        : 10352__0.ttf
        mimetype        : application/x-truetype-font
  Stream #1:6: Attachment: ttf
      Metadata:
        filename        : XENI.TTF
        mimetype        : application/x-truetype-font
  Stream #1:7: Attachment: otf
      Metadata:
        filename        : TrajanPro3-Bold.otf
        mimetype        : application/vnd.ms-opentype
  Stream #1:8: Attachment: otf
      Metadata:
        filename        : TrajanPro3-Regular.otf
        mimetype        : application/vnd.ms-opentype
  Stream #1:9: Attachment: ttf
      Metadata:
        filename        : REDOCTOB.otf
        mimetype        : application/x-truetype-font
  Stream #1:10: Attachment: ttf
      Metadata:
        filename        : OpenSanA.ttf
        mimetype        : application/x-truetype-font
  Stream #1:11: Attachment: ttf
      Metadata:
        filename        : Snowstorm.ttf
        mimetype        : application/x-truetype-font
  Stream #1:12: Attachment: ttf
      Metadata:
        filename        : BenchNine-Regular.ttf
        mimetype        : application/x-truetype-font
  Stream #1:13: Attachment: ttf
      Metadata:
        filename        : Aero Matics Display Bold.ttf
        mimetype        : application/x-truetype-font
  Stream #1:14: Attachment: ttf
      Metadata:
        filename        : Aero Matics Display Light.ttf
        mimetype        : application/x-truetype-font
  Stream #1:15: Attachment: ttf
      Metadata:
        filename        : Aero Matics Display Bold Italic.ttf
        mimetype        : application/x-truetype-font
  Stream #1:16: Attachment: ttf
      Metadata:
        filename        : Aero Matics Display Italic.ttf
        mimetype        : application/x-truetype-font
  Stream #1:17: Attachment: ttf
      Metadata:
        filename        : Aero Matics Display Light Italic.ttf
        mimetype        : application/x-truetype-font
  Stream #1:18: Attachment: ttf
      Metadata:
        filename        : Aero_Matics_Display_Regular.ttf
        mimetype        : application/x-truetype-font
  Stream #1:19: Attachment: ttf
      Metadata:
        filename        : v_HolyMackerelli_v1.9.ttf
        mimetype        : application/x-truetype-font
  Stream #1:20: Attachment: ttf
      Metadata:
        filename        : v_StraightJacketBB_v1.1.ttf
        mimetype        : application/x-truetype-font
  Stream #1:21: Attachment: ttf
      Metadata:
        filename        : TEMPSITC.TTF
        mimetype        : application/x-truetype-font
Stream mapping:
  Stream #0:0 (hevc) -> settb:default
  Stream #1:0 (h264) -> settb:default
  psnr:default -> Stream #0:0 (wrapped_avframe)
  Stream #0:1 -> #0:1 (aac (native) -> pcm_s16le (native))
Output #0, null, to 'pipe:':
  Metadata:
    encoder         : Lavf61.7.100
  Stream #0:0: Video: wrapped_avframe, yuv420p10le(tv, bt709, progressive), 1280x720 [SAR 1:1 DAR 16:9], q=2-31, 200 kb/s, 23.98 fps, 23.98 tbn
      Metadata:
        encoder         : Lavc61.19.100 wrapped_avframe
  Stream #0:1(rus): Audio: pcm_s16le, 48000 Hz, stereo, s16, 1536 kb/s (default) (forced)
      Metadata:
        title           : Lupin, Silv, December & MyAska
        _STATISTICS_TAGS: BPS DURATION NUMBER_OF_FRAMES NUMBER_OF_BYTES
        BPS             : 193855
        DURATION        : 00:24:30.080000000
        NUMBER_OF_FRAMES: 68911
        NUMBER_OF_BYTES : 35622940
        _STATISTICS_WRITING_APP: mkvpropedit v66.0.0 ('Josie') 64-bit
        _STATISTICS_WRITING_DATE_UTC: 2025-06-26 14:46:29
        encoder         : Lavc61.19.100 pcm_s16le
frame=  461 fps=0.0 q=-0.0 size=N/A time=00:00:19.22 bitrate=N/A speed=37.2x    frame=  929 fps=896 q=-0.0 size=N/A time=00:00:38.74 bitrate=N/A speed=37.4x    frame= 1279 fps=823 q=-0.0 size=N/A time=00:00:53.34 bitrate=N/A speed=34.3x    frame= 1809 fps=873 q=-0.0 size=N/A time=00:01:15.45 bitrate=N/A speed=36.4x    frame= 2356 fps=915 q=-0.0 size=N/A time=00:01:38.26 bitrate=N/A speed=38.2x    frame= 2926 fps=944 q=-0.0 size=N/A time=00:02:02.03 bitrate=N/A speed=39.4x    frame= 3473 fps=963 q=-0.0 size=N/A time=00:02:24.85 bitrate=N/A speed=40.1x    frame= 4014 fps=972 q=-0.0 size=N/A time=00:02:47.41 bitrate=N/A speed=40.5x    frame= 4377 fps=942 q=-0.0 size=N/A time=00:03:02.55 bitrate=N/A speed=39.3x    frame= 4712 fps=913 q=-0.0 size=N/A time=00:03:16.52 bitrate=N/A speed=38.1x    frame= 5112 fps=900 q=-0.0 size=N/A time=00:03:33.21 bitrate=N/A speed=37.6x    frame= 5404 fps=873 q=-0.0 size=N/A time=00:03:45.39 bitrate=N/A speed=36.4x    frame= 5789 fps=863 q=-0.0 size=N/A time=00:04:01.44 bitrate=N/A speed=  36x    frame= 6069 fps=840 q=-0.0 size=N/A time=00:04:13.12 bitrate=N/A speed=  35x    frame= 6524 fps=843 q=-0.0 size=N/A time=00:04:32.10 bitrate=N/A speed=35.1x    frame= 6893 fps=835 q=-0.0 size=N/A time=00:04:47.49 bitrate=N/A speed=34.8x    frame= 7424 fps=847 q=-0.0 size=N/A time=00:05:09.64 bitrate=N/A speed=35.3x    frame= 7938 fps=855 q=-0.0 size=N/A time=00:05:31.08 bitrate=N/A speed=35.7x    frame= 8429 fps=860 q=-0.0 size=N/A time=00:05:51.55 bitrate=N/A speed=35.9x    frame= 8973 fps=869 q=-0.0 size=N/A time=00:06:14.24 bitrate=N/A speed=36.2x    frame= 9477 fps=874 q=-0.0 size=N/A time=00:06:35.26 bitrate=N/A speed=36.4x    frame=10022 fps=882 q=-0.0 size=N/A time=00:06:58.00 bitrate=N/A speed=36.8x    frame=10458 fps=880 q=-0.0 size=N/A time=00:07:16.18 bitrate=N/A speed=36.7x    frame=10977 fps=886 q=-0.0 size=N/A time=00:07:37.83 bitrate=N/A speed=36.9x    frame=11445 fps=887 q=-0.0 size=N/A time=00:07:57.35 bitrate=N/A speed=  37x    frame=11816 fps=880 q=-0.0 size=N/A time=00:08:12.82 bitrate=N/A speed=36.7x    frame=11949 fps=857 q=-0.0 size=N/A time=00:08:18.37 bitrate=N/A speed=35.8x    frame=12082 fps=836 q=-0.0 size=N/A time=00:08:23.92 bitrate=N/A speed=34.9x    frame=12415 fps=829 q=-0.0 size=N/A time=00:08:37.80 bitrate=N/A speed=34.6x    frame=12915 fps=833 q=-0.0 size=N/A time=00:08:58.66 bitrate=N/A speed=34.8x    frame=13256 fps=828 q=-0.0 size=N/A time=00:09:12.88 bitrate=N/A speed=34.5x    frame=13725 fps=830 q=-0.0 size=N/A time=00:09:32.44 bitrate=N/A speed=34.6x    frame=14106 fps=827 q=-0.0 size=N/A time=00:09:48.33 bitrate=N/A speed=34.5x    frame=14537 fps=827 q=-0.0 size=N/A time=00:10:06.31 bitrate=N/A speed=34.5x    frame=14905 fps=824 q=-0.0 size=N/A time=00:10:21.66 bitrate=N/A speed=34.4x    frame=15364 fps=826 q=-0.0 size=N/A time=00:10:40.80 bitrate=N/A speed=34.4x    frame=15845 fps=829 q=-0.0 size=N/A time=00:11:00.86 bitrate=N/A speed=34.6x    frame=16297 fps=830 q=-0.0 size=N/A time=00:11:19.72 bitrate=N/A speed=34.6x    frame=16633 fps=826 q=-0.0 size=N/A time=00:11:33.73 bitrate=N/A speed=34.4x    frame=17018 fps=824 q=-0.0 size=N/A time=00:11:49.79 bitrate=N/A speed=34.3x    frame=17446 fps=824 q=-0.0 size=N/A time=00:12:07.64 bitrate=N/A speed=34.4x    frame=17931 fps=826 q=-0.0 size=N/A time=00:12:27.87 bitrate=N/A speed=34.5x    frame=18426 fps=830 q=-0.0 size=N/A time=00:12:48.51 bitrate=N/A speed=34.6x    frame=18855 fps=830 q=-0.0 size=N/A time=00:13:06.41 bitrate=N/A speed=34.6x    frame=19330 fps=832 q=-0.0 size=N/A time=00:13:26.22 bitrate=N/A speed=34.7x    frame=19722 fps=830 q=-0.0 size=N/A time=00:13:42.57 bitrate=N/A speed=34.6x    frame=20168 fps=831 q=-0.0 size=N/A time=00:14:01.17 bitrate=N/A speed=34.7x    frame=20662 fps=833 q=-0.0 size=N/A time=00:14:21.77 bitrate=N/A speed=34.8x    frame=21130 fps=835 q=-0.0 size=N/A time=00:14:41.29 bitrate=N/A speed=34.8x    frame=21587 fps=836 q=-0.0 size=N/A time=00:15:00.35 bitrate=N/A speed=34.9x    frame=22076 fps=838 q=-0.0 size=N/A time=00:15:20.75 bitrate=N/A speed=  35x    frame=22505 fps=838 q=-0.0 size=N/A time=00:15:38.64 bitrate=N/A speed=  35x    frame=22965 fps=839 q=-0.0 size=N/A time=00:15:57.83 bitrate=N/A speed=  35x    frame=23530 fps=844 q=-0.0 size=N/A time=00:16:21.39 bitrate=N/A speed=35.2x    frame=23940 fps=843 q=-0.0 size=N/A time=00:16:38.49 bitrate=N/A speed=35.2x    frame=24426 fps=845 q=-0.0 size=N/A time=00:16:58.76 bitrate=N/A speed=35.2x    frame=24849 fps=845 q=-0.0 size=N/A time=00:17:16.41 bitrate=N/A speed=35.2x    frame=25291 fps=845 q=-0.0 size=N/A time=00:17:34.84 bitrate=N/A speed=35.2x    frame=25610 fps=841 q=-0.0 size=N/A time=00:17:48.15 bitrate=N/A speed=35.1x    frame=26049 fps=841 q=-0.0 size=N/A time=00:18:06.46 bitrate=N/A speed=35.1x    frame=26454 fps=840 q=-0.0 size=N/A time=00:18:23.35 bitrate=N/A speed=  35x    frame=26966 fps=843 q=-0.0 size=N/A time=00:18:44.70 bitrate=N/A speed=35.1x    frame=27412 fps=843 q=-0.0 size=N/A time=00:19:03.30 bitrate=N/A speed=35.2x    frame=27950 fps=846 q=-0.0 size=N/A time=00:19:25.74 bitrate=N/A speed=35.3x    frame=28325 fps=844 q=-0.0 size=N/A time=00:19:41.38 bitrate=N/A speed=35.2x    frame=28793 fps=845 q=-0.0 size=N/A time=00:20:00.90 bitrate=N/A speed=35.3x    frame=29282 fps=847 q=-0.0 size=N/A time=00:20:21.30 bitrate=N/A speed=35.3x    frame=29779 fps=848 q=-0.0 size=N/A time=00:20:42.03 bitrate=N/A speed=35.4x    frame=30326 fps=852 q=-0.0 size=N/A time=00:21:04.84 bitrate=N/A speed=35.5x    frame=30655 fps=848 q=-0.0 size=N/A time=00:21:18.56 bitrate=N/A speed=35.4x    frame=30979 fps=845 q=-0.0 size=N/A time=00:21:32.08 bitrate=N/A speed=35.3x    frame=31480 fps=847 q=-0.0 size=N/A time=00:21:52.97 bitrate=N/A speed=35.3x    frame=32072 fps=851 q=-0.0 size=N/A time=00:22:17.66 bitrate=N/A speed=35.5x    frame=32572 fps=853 q=-0.0 size=N/A time=00:22:38.52 bitrate=N/A speed=35.6x    frame=32924 fps=851 q=-0.0 size=N/A time=00:22:53.20 bitrate=N/A speed=35.5x    frame=33379 fps=851 q=-0.0 size=N/A time=00:23:12.18 bitrate=N/A speed=35.5x    frame=33785 fps=850 q=-0.0 size=N/A time=00:23:29.11 bitrate=N/A speed=35.5x    frame=34193 fps=849 q=-0.0 size=N/A time=00:23:46.13 bitrate=N/A speed=35.4x    frame=34735 fps=852 q=-0.0 size=N/A time=00:24:08.73 bitrate=N/A speed=35.5x    [Parsed_psnr_10 @ 000001a24034ad40] PSNR y:46.599680 u:50.327327 v:49.815271 average:47.478534 min:36.548236 max:54.953969
[out#0/null @ 000001a240b19b40] video:15144KiB audio:275644KiB subtitle:0KiB other streams:0KiB global headers:0KiB muxing overhead: unknown
frame=35244 fps=855 q=-0.0 Lsize=N/A time=00:24:29.96 bitrate=N/A speed=35.7x    
